# xmcd
#
# Track frame offsets: 
#        172
#        16407
#        29210
#        48592
#        66267
#        87865
#        100662
#        115822
#        130160
#        144560
#        164682
#
# Disc length: 2333 seconds
#
# Revision: 4
# Processed by: cddbd v1.5.2PL0 Copyright (c) Steve Scherf et al.
# Submitted via: ExactAudioCopy v0.99pb4
#
DISCID=9b091b0b
DTITLE=Slim Dunlap - The Old New Me
DYEAR=1993
DGENRE=Rock
TTITLE0=Rockin' Here Tonight
TTITLE1=Just For The Hell Of It
TTITLE2=Isn't It
TTITLE3=Partners In Crime
TTITLE4=Taken On The Chin
TTITLE5=From The Git Go
TTITLE6=Busted Up
TTITLE7=Ain't Exactly Good
TTITLE8=The King and Queen
TTITLE9=The Ballad of the Opening Band
TTITLE10=Love Lost
EXTD=
EXTT0=
EXTT1=
EXTT2=
EXTT3=
EXTT4=
EXTT5=
EXTT6=
EXTT7=
EXTT8=
EXTT9=
EXTT10=
PLAYORDER=
